<?xml version="1.0" standalone="no"?>
<!DOCTYPE svg PUBLIC "-//W3C//DTD SVG 20010904//EN"
 "http://www.w3.org/TR/2001/REC-SVG-20010904/DTD/svg10.dtd">
<svg version="1.0" xmlns="http://www.w3.org/2000/svg"
 width="164.000000pt" height="164.000000pt" viewBox="0 0 164.000000 164.000000"
 preserveAspectRatio="xMidYMid meet">
<metadata>
Created by potrace 1.14, written by Peter Selinger 2001-2017
</metadata>
<g transform="translate(0.000000,164.000000) scale(0.100000,-0.100000)"
fill="#000000" stroke="none">
<path d="M395 1624 c-124 -30 -257 -129 -319 -236 -71 -122 -70 -114 -73 -538
-2 -317 0 -396 12 -449 45 -188 200 -342 389 -386 96 -22 755 -21 841 1 148
39 278 144 340 275 19 41 39 98 45 128 13 69 13 716 0 796 -22 138 -138 298
-260 360 -121 62 -136 64 -543 64 -292 0 -385 -3 -432 -15z"/>
</g>
</svg>
